<?xml version="1.0" standalone="no"?>
<!DOCTYPE svg PUBLIC "-//W3C//DTD SVG 20010904//EN"
 "http://www.w3.org/TR/2001/REC-SVG-20010904/DTD/svg10.dtd">
<svg version="1.0" xmlns="http://www.w3.org/2000/svg"
 width="512.000000pt" height="512.000000pt" viewBox="0 0 512.000000 512.000000"
 preserveAspectRatio="xMidYMid meet">
<metadata>
Created by potrace 1.14, written by Peter Selinger 2001-2017
</metadata>
<g transform="translate(0.000000,512.000000) scale(0.100000,-0.100000)"
fill="#000000" stroke="none">
<path d="M1790 5101 c-87 -28 -137 -58 -198 -119 -63 -64 -107 -145 -125 -230
-9 -41 -21 -66 -44 -89 -61 -62 -112 -155 -129 -234 -8 -42 -5 -163 6 -198 5
-19 9 -35 7 -36 -1 -1 -36 -9 -77 -19 -204 -48 -374 -206 -431 -403 -54 -186
-14 -389 107 -539 37 -46 40 -58 49 -164 4 -41 8 -93 10 -115 2 -22 7 -74 10
-117 3 -42 8 -87 10 -100 2 -12 6 -57 10 -98 4 -41 8 -93 10 -115 2 -22 7 -69
10 -105 3 -36 8 -83 10 -105 2 -22 7 -69 10 -105 3 -36 7 -74 9 -85 2 -11 7
-65 11 -119 4 -55 8 -107 10 -115 1 -9 6 -52 10 -96 4 -44 9 -91 10 -105 1
-14 6 -61 9 -105 4 -44 9 -93 11 -110 3 -16 7 -64 10 -105 3 -41 7 -91 9 -110
9 -75 22 -208 31 -315 3 -39 8 -84 10 -100 2 -17 6 -64 9 -105 4 -41 8 -95 11
-120 3 -25 7 -70 10 -100 3 -30 8 -71 10 -90 2 -19 7 -69 10 -110 3 -41 8 -91
10 -110 5 -40 18 -179 18 -197 0 -10 247 -13 1202 -13 1043 0 1208 2 1252 15
39 12 58 13 80 4 15 -6 66 -13 113 -16 70 -4 96 -1 150 16 161 54 274 187 302
355 21 127 -25 272 -116 366 -33 35 -45 55 -50 91 -9 59 -54 153 -100 205 -46
53 -126 106 -194 129 l-53 17 6 62 c3 33 8 81 10 106 10 109 16 177 20 210 5
43 14 137 20 205 9 112 16 182 20 215 2 19 9 89 15 155 6 66 13 136 15 155 4
33 13 130 20 215 7 86 18 201 21 217 1 9 6 57 9 105 4 48 8 99 10 113 2 14 6
51 9 83 17 176 15 168 57 217 21 25 39 49 39 53 0 4 10 24 23 45 64 104 82
302 40 437 -41 130 -128 247 -238 319 -72 47 -175 86 -250 93 l-64 6 29 42
c50 73 78 174 75 270 -2 79 -8 104 -42 185 -17 39 -68 105 -117 151 -39 38
-135 84 -205 98 -42 9 -65 22 -106 60 -93 84 -199 122 -329 117 -254 -11 -441
-218 -431 -476 l3 -80 -25 38 c-14 20 -40 53 -58 72 -23 25 -35 48 -39 81 -21
146 -155 295 -316 349 -59 20 -198 21 -260 1z"/>
</g>
</svg>
